# xmcd
#
# Track frame offsets:
#	150
#	25685
#	72427
#	120782
#	144877
#	175264
#	199429
#	223836
#	237133
#	267127
#	287604
#	316578
#
# Disc length: 4395 seconds
#
# Revision: 0
# Processed by: cddbd v1.5.1PL2 Copyright (c) Steve Scherf et al.
# Submitted via: dBpowerAMP V4.0
#
DISCID=a511290c
DTITLE=Eric Clapton - Crossroads 2
DYEAR=1900
DGENRE=Blues
TTITLE0=Layla
TTITLE1=I Shot The Sheriff
TTITLE2=Badge
TTITLE3=Cant Find My Way Home
TTITLE4=Little Wing
TTITLE5=Knockin On Heavens Door
TTITLE6=Lay Down Sally
TTITLE7=We're All The Way
TTITLE8=Cocaine
TTITLE9=Tulsa Time
TTITLE10=Wonderful Tonight
TTITLE11=Cryin
EXTD=
EXTT0=
EXTT1=
EXTT2=
EXTT3=
EXTT4=
EXTT5=
EXTT6=
EXTT7=
EXTT8=
EXTT9=
EXTT10=
EXTT11=
PLAYORDER=
